<svg width="100" height="100" viewBox="0 0 100 100" fill="none" xmlns="http://www.w3.org/2000/svg">
<circle cx="50" cy="50" r="50" fill="white"/>
<path d="M55.5107 77H44.4847V38.076H55.5107V77ZM56.5467 26.828C56.5467 28.8507 55.8807 30.454 54.5487 31.638C53.266 32.7727 51.7367 33.34 49.9607 33.34C48.1847 33.34 46.6307 32.7727 45.2987 31.638C44.016 30.454 43.3747 28.8507 43.3747 26.828C43.3747 24.8053 44.016 23.2267 45.2987 22.092C46.6307 20.908 48.1847 20.316 49.9607 20.316C51.7367 20.316 53.266 20.908 54.5487 22.092C55.8807 23.2267 56.5467 24.8053 56.5467 26.828Z" fill="#303030"/>
</svg>
