<svg width="318" height="318" viewBox="0 0 318 318" fill="none" xmlns="http://www.w3.org/2000/svg">
<g filter="url(#filter0_d)">
<rect width="310" height="310" rx="17" fill="white"/>
<path d="M38.3731 149V145.352C39.4611 144.712 40.6771 144.168 42.0211 143.72C43.3651 143.208 44.7731 142.824 46.2451 142.568V88.232C44.7731 87.912 43.3331 87.528 41.9251 87.08C40.5811 86.568 39.3971 86.024 38.3731 85.448V81.8H49.5091C50.5971 81.8 51.9411 81.768 53.5411 81.704C55.1411 81.64 56.8051 81.576 58.5331 81.512C60.2611 81.384 61.9251 81.288 63.5251 81.224C65.1891 81.096 66.5971 81.032 67.7491 81.032C73.3171 81.032 78.2771 81.768 82.6291 83.24C87.0451 84.712 90.7571 86.856 93.7651 89.672C96.8371 92.488 99.1731 95.976 100.773 100.136C102.437 104.296 103.269 109.096 103.269 114.536C103.269 119.848 102.501 124.68 100.965 129.032C99.4291 133.384 97.1251 137.096 94.0531 140.168C90.9811 143.24 87.0771 145.64 82.3411 147.368C77.6691 149.032 72.1651 149.864 65.8291 149.864C64.9971 149.864 63.8771 149.8 62.4691 149.672C61.0611 149.608 59.5571 149.512 57.9571 149.384C56.3571 149.32 54.7571 149.224 53.1571 149.096C51.5571 149.032 50.1491 149 48.9331 149H38.3731ZM66.5011 87.272C65.3491 87.272 64.1971 87.304 63.0451 87.368C61.8931 87.432 60.9011 87.528 60.0691 87.656V143.24C60.3251 143.304 60.7731 143.368 61.4131 143.432C62.0531 143.432 62.6931 143.464 63.3331 143.528C64.0371 143.528 64.7091 143.56 65.3491 143.624C65.9891 143.624 66.4691 143.624 66.7891 143.624C70.5011 143.624 73.6371 142.856 76.1971 141.32C78.8211 139.784 80.9651 137.704 82.6291 135.08C84.2931 132.456 85.5091 129.384 86.2771 125.864C87.0451 122.344 87.4291 118.6 87.4291 114.632C87.4291 111.112 87.0131 107.72 86.1811 104.456C85.4131 101.192 84.1971 98.28 82.5331 95.72C80.8691 93.16 78.6931 91.112 76.0051 89.576C73.3811 88.04 70.2131 87.272 66.5011 87.272ZM159.557 81.8C159.429 84.68 159.205 87.656 158.885 90.728C158.565 93.8 158.149 96.68 157.637 99.368H153.701L149.285 88.04H131.333V111.56H143.045L147.269 104.168H150.341C150.661 107.304 150.821 110.792 150.821 114.632C150.821 118.472 150.661 122.056 150.341 125.384H147.269L143.045 117.8H131.333V142.76H150.053L155.141 130.568H159.077C159.333 131.784 159.589 133.16 159.845 134.696C160.101 136.232 160.293 137.832 160.421 139.496C160.613 141.096 160.741 142.728 160.805 144.392C160.933 146.056 160.997 147.592 160.997 149H109.061V145.352C110.149 144.776 111.365 144.232 112.709 143.72C114.053 143.208 115.461 142.824 116.933 142.568V88.232C115.653 87.976 114.277 87.624 112.805 87.176C111.397 86.664 110.149 86.088 109.061 85.448V81.8H159.557ZM197.91 149H167.958V145.352C170.518 143.944 173.11 143.016 175.734 142.568V88.232C174.454 88.04 173.11 87.688 171.702 87.176C170.294 86.664 169.046 86.088 167.958 85.448V81.8H197.91V85.448C196.758 86.152 195.478 86.76 194.07 87.272C192.726 87.72 191.414 88.04 190.134 88.232V142.568C191.414 142.824 192.726 143.176 194.07 143.624C195.478 144.072 196.758 144.648 197.91 145.352V149ZM247.837 81.8H271.645V85.448C270.429 86.408 269.085 87.272 267.613 88.04C266.141 88.744 264.765 89.288 263.485 89.672V150.152H255.325L221.437 101.192L217.597 93.8H217.309L218.173 101.48V141.512C219.453 141.832 220.861 142.376 222.397 143.144C223.997 143.848 225.341 144.584 226.429 145.352V149H202.717V145.352C203.869 144.584 205.117 143.88 206.461 143.24C207.869 142.536 209.309 141.96 210.781 141.512V89.096C209.501 88.584 208.221 88.008 206.941 87.368C205.661 86.728 204.509 86.056 203.485 85.352V81.8H224.221L251.773 121.736L256.189 129.992H256.573L256.093 121.736V89.672C254.557 89.16 253.053 88.552 251.581 87.848C250.173 87.08 248.925 86.28 247.837 85.448V81.8ZM45.4513 233V229.352C46.6673 228.648 47.9473 228.04 49.2913 227.528C50.6993 227.016 52.0433 226.696 53.3233 226.568V172.232C52.0433 171.976 50.6993 171.624 49.2913 171.176C47.8833 170.664 46.6033 170.088 45.4513 169.448V165.8H60.9073C63.3393 165.8 65.6433 165.704 67.8193 165.512C69.9953 165.32 72.4913 165.224 75.3073 165.224C78.3793 165.224 81.3553 165.448 84.2353 165.896C87.1153 166.344 89.6753 167.144 91.9153 168.296C94.1553 169.448 95.9473 171.08 97.2913 173.192C98.6353 175.24 99.3073 177.896 99.3073 181.16C99.3073 183.208 98.9233 185.128 98.1553 186.92C97.4513 188.648 96.4273 190.184 95.0833 191.528C93.8033 192.872 92.2673 193.992 90.4753 194.888C88.7473 195.784 86.8593 196.424 84.8113 196.808V197.192C86.8593 197.448 88.9073 197.928 90.9553 198.632C93.0673 199.336 94.9553 200.36 96.6193 201.704C98.2833 203.048 99.6273 204.744 100.651 206.792C101.739 208.776 102.283 211.144 102.283 213.896C102.283 217.352 101.515 220.328 99.9792 222.824C98.4433 225.32 96.3633 227.368 93.7393 228.968C91.1793 230.568 88.2353 231.752 84.9073 232.52C81.5793 233.224 78.1233 233.576 74.5393 233.576C73.1953 233.576 71.7233 233.544 70.1233 233.48C68.5233 233.416 66.9233 233.352 65.3233 233.288C63.7233 233.224 62.1553 233.16 60.6193 233.096C59.1473 233.032 57.8993 233 56.8753 233H45.4513ZM74.4433 227.336C78.4753 227.336 81.6433 226.152 83.9473 223.784C86.2513 221.352 87.4033 218.152 87.4033 214.184C87.4033 211.752 87.0193 209.768 86.2513 208.232C85.4833 206.632 84.4273 205.384 83.0833 204.488C81.7393 203.528 80.1393 202.888 78.2833 202.568C76.4273 202.184 74.4113 201.992 72.2353 201.992H67.1473V226.664C68.0433 226.856 68.9713 227.016 69.9313 227.144C70.9553 227.272 72.4593 227.336 74.4433 227.336ZM70.2193 195.752C71.3073 195.752 72.3953 195.72 73.4833 195.656C74.5713 195.528 75.5953 195.4 76.5553 195.272C79.0513 194.248 81.0673 192.68 82.6033 190.568C84.1393 188.392 84.9073 185.928 84.9073 183.176C84.9073 179.144 83.8513 176.2 81.7393 174.344C79.6273 172.424 76.9073 171.464 73.5793 171.464C72.1713 171.464 70.9553 171.496 69.9313 171.56C68.9073 171.624 67.9793 171.72 67.1473 171.848V195.752H70.2193ZM138.707 233H108.755V229.352C111.315 227.944 113.907 227.016 116.531 226.568V172.232C115.251 172.04 113.907 171.688 112.499 171.176C111.091 170.664 109.843 170.088 108.755 169.448V165.8H138.707V169.448C137.555 170.152 136.275 170.76 134.867 171.272C133.523 171.72 132.211 172.04 130.931 172.232V226.568C132.211 226.824 133.523 227.176 134.867 227.624C136.275 228.072 137.555 228.648 138.707 229.352V233ZM194.01 165.8C193.882 168.68 193.658 171.656 193.338 174.728C193.018 177.8 192.602 180.68 192.09 183.368H188.154L183.738 172.04H165.786V195.56H177.498L181.722 188.168H184.794C185.114 191.304 185.274 194.792 185.274 198.632C185.274 202.472 185.114 206.056 184.794 209.384H181.722L177.498 201.8H165.786V226.76H184.506L189.594 214.568H193.53C193.786 215.784 194.042 217.16 194.298 218.696C194.554 220.232 194.746 221.832 194.874 223.496C195.066 225.096 195.194 226.728 195.258 228.392C195.386 230.056 195.45 231.592 195.45 233H143.514V229.352C144.602 228.776 145.818 228.232 147.162 227.72C148.506 227.208 149.914 226.824 151.386 226.568V172.232C150.106 171.976 148.73 171.624 147.258 171.176C145.85 170.664 144.602 170.088 143.514 169.448V165.8H194.01ZM223.723 226.568C225.195 226.888 226.507 227.304 227.659 227.816C228.811 228.328 229.931 228.84 231.019 229.352V233H201.451V229.352C202.859 228.584 204.203 228.008 205.483 227.624C206.763 227.176 208.043 226.824 209.323 226.568V172.232C206.123 171.528 203.499 170.6 201.451 169.448V165.8H211.627C212.907 165.8 214.347 165.768 215.947 165.704C217.611 165.64 219.339 165.576 221.131 165.512C222.923 165.384 224.747 165.288 226.603 165.224C228.459 165.096 230.251 165.032 231.979 165.032C235.499 165.032 238.731 165.448 241.675 166.28C244.683 167.048 247.243 168.232 249.355 169.832C251.531 171.432 253.195 173.448 254.347 175.88C255.563 178.248 256.171 181.032 256.171 184.232C256.171 188.84 255.051 192.616 252.811 195.56C250.571 198.504 247.499 200.712 243.595 202.184C246.155 206.216 248.875 210.344 251.755 214.568C254.635 218.728 257.675 222.76 260.875 226.664L265.483 229.736V233H249.451L245.323 229.832C242.379 226.312 239.755 222.248 237.451 217.64C235.211 212.968 233.227 208.392 231.499 203.912H223.723V226.568ZM228.523 171.272C226.539 171.272 224.939 171.464 223.723 171.848V198.632H229.387C232.651 198.632 235.435 197.48 237.739 195.176C240.043 192.808 241.195 189.32 241.195 184.712C241.195 182.344 240.875 180.328 240.235 178.664C239.595 176.936 238.699 175.528 237.547 174.44C236.395 173.352 235.051 172.552 233.515 172.04C231.979 171.528 230.315 171.272 228.523 171.272Z" fill="#333333"/>
</g>
<defs>
<filter id="filter0_d" x="0" y="0" width="318" height="318" filterUnits="userSpaceOnUse" color-interpolation-filters="sRGB">
<feFlood flood-opacity="0" result="BackgroundImageFix"/>
<feColorMatrix in="SourceAlpha" type="matrix" values="0 0 0 0 0 0 0 0 0 0 0 0 0 0 0 0 0 0 127 0"/>
<feOffset dx="4" dy="4"/>
<feGaussianBlur stdDeviation="2"/>
<feColorMatrix type="matrix" values="0 0 0 0 0 0 0 0 0 0 0 0 0 0 0 0 0 0 0.41 0"/>
<feBlend mode="normal" in2="BackgroundImageFix" result="effect1_dropShadow"/>
<feBlend mode="normal" in="SourceGraphic" in2="effect1_dropShadow" result="shape"/>
</filter>
</defs>
</svg>
