<svg width="310" height="310" viewBox="0 0 310 310" fill="none" xmlns="http://www.w3.org/2000/svg">
<path d="M293 0H17C7.61116 0 0 7.61116 0 17V293C0 302.389 7.61116 310 17 310H293C302.389 310 310 302.389 310 293V17C310 7.61116 302.389 0 293 0Z" fill="#363636"/>
<path d="M211.281 109.838C213.067 115.939 215.001 122.858 217.085 130.595C219.317 138.184 221.623 146.071 224.004 154.255C226.533 162.439 229.063 170.623 231.593 178.807C234.122 186.991 236.577 194.579 238.958 201.573C240.893 193.984 242.827 185.726 244.761 176.798C246.845 167.87 248.779 158.644 250.565 149.121C252.35 139.598 254.061 130.149 255.698 120.775C257.484 111.251 259.121 102.1 260.609 93.321H296.767C291.559 119.212 285.533 145.475 278.688 172.111C271.992 198.746 264.701 224.042 256.814 247.999H224.897C219.689 233.714 214.629 218.759 209.719 203.135C204.809 187.363 199.973 171.59 195.211 155.817C190.449 171.59 185.688 187.363 180.926 203.135C176.165 218.759 171.18 233.714 165.972 247.999H134.054C126.168 224.042 118.802 198.746 111.958 172.111C105.262 145.475 99.3096 119.212 94.1016 93.321H131.822C133.31 102.1 134.947 111.251 136.733 120.775C138.518 130.149 140.378 139.598 142.313 149.121C144.247 158.644 146.181 167.87 148.116 176.798C150.199 185.726 152.282 193.984 154.365 201.573C157.044 194.282 159.648 186.544 162.177 178.36C164.707 170.176 167.162 161.992 169.543 153.808C171.924 145.624 174.081 137.738 176.016 130.149C178.099 122.56 179.959 115.79 181.596 109.838H211.281Z" fill="#ED9E0E"/>
<path d="M76.2321 247.999C70.1313 235.053 64.1049 221.587 58.1529 207.599C52.2009 193.612 46.5465 179.774 41.1897 166.084C35.8329 152.395 30.8481 139.3 26.2353 126.801C21.7713 114.302 17.9025 103.142 14.6289 93.321H53.0193C55.9953 102.249 59.1945 111.921 62.6169 122.337C66.1881 132.604 69.7593 142.871 73.3305 153.139C77.0505 163.406 80.6217 173.227 84.0441 182.601C87.4665 191.975 90.6657 200.085 93.6417 206.93C96.4689 200.085 99.5937 191.975 103.016 182.601C106.587 173.227 110.158 163.406 113.73 153.139C117.45 142.871 121.021 132.604 124.443 122.337C128.014 111.921 131.288 102.249 134.264 93.321H171.315C167.893 103.142 163.95 114.302 159.486 126.801C155.022 139.3 150.111 152.395 144.754 166.084C139.398 179.774 133.743 193.612 127.791 207.599C121.839 221.587 115.813 235.053 109.712 247.999H76.2321Z" fill="#ED4C5C"/>
<path d="M25.0059 136.399V50.4669H83.0379V66.7109H44.3499V83.5749H78.6979V99.4469H44.3499V120.155H85.8899V136.399H25.0059ZM123.641 121.643C126.37 121.643 128.602 121.436 130.338 121.023C132.156 120.527 133.603 119.907 134.678 119.163C135.752 118.336 136.496 117.386 136.91 116.311C137.323 115.236 137.53 114.038 137.53 112.715C137.53 109.904 136.207 107.59 133.562 105.771C130.916 103.87 126.37 101.844 119.921 99.6949C117.11 98.7029 114.3 97.5869 111.489 96.3469C108.678 95.0242 106.157 93.4122 103.925 91.5109C101.693 89.5269 99.8743 87.1709 98.469 84.4429C97.0638 81.6322 96.361 78.2429 96.361 74.2749C96.361 70.3069 97.1051 66.7522 98.5931 63.6109C100.081 60.3869 102.189 57.6589 104.917 55.4269C107.645 53.1949 110.952 51.5002 114.837 50.3429C118.722 49.1029 123.104 48.4829 127.982 48.4829C133.768 48.4829 138.77 49.1029 142.986 50.3429C147.202 51.5829 150.674 52.9469 153.402 54.4349L147.822 69.6869C145.424 68.4469 142.738 67.3722 139.762 66.4629C136.868 65.4709 133.355 64.9749 129.222 64.9749C124.592 64.9749 121.244 65.6362 119.177 66.9589C117.193 68.1989 116.201 70.1416 116.201 72.7869C116.201 74.3576 116.573 75.6802 117.317 76.7549C118.061 77.8296 119.094 78.8216 120.417 79.7309C121.822 80.5576 123.393 81.3429 125.13 82.0869C126.948 82.7482 128.932 83.4509 131.082 84.1949C135.546 85.8482 139.431 87.5016 142.738 89.1549C146.044 90.7256 148.772 92.5856 150.922 94.7349C153.154 96.8842 154.807 99.4056 155.882 102.299C156.956 105.192 157.494 108.706 157.494 112.839C157.494 120.858 154.683 127.099 149.062 131.563C143.44 135.944 134.967 138.135 123.641 138.135C119.838 138.135 116.408 137.887 113.349 137.391C110.29 136.978 107.562 136.44 105.165 135.779C102.85 135.118 100.825 134.415 99.089 133.671C97.4358 132.927 96.0303 132.224 94.873 131.563L100.329 116.187C102.892 117.592 106.033 118.874 109.753 120.031C113.556 121.106 118.185 121.643 123.641 121.643Z" fill="white"/>
</svg>
