<svg width="318" height="318" viewBox="0 0 318 318" fill="none" xmlns="http://www.w3.org/2000/svg">
<g filter="url(#filter0_d)">
<rect width="310" height="310" rx="17" fill="white"/>
<path d="M128.306 88.232C125.746 87.848 123.058 86.92 120.242 85.448V81.8H144.434V85.448C143.346 86.152 142.194 86.728 140.978 87.176C139.762 87.624 138.578 87.976 137.426 88.232L120.434 149L110.45 150.152L95.5696 103.688L81.0736 149L70.9936 150.152L52.2736 88.232C50.9296 87.976 49.6816 87.624 48.5296 87.176C47.3776 86.664 46.2896 86.088 45.2656 85.448V81.8H76.3696V85.448C75.2816 86.024 74.0336 86.568 72.6256 87.08C71.2816 87.528 69.8736 87.912 68.4016 88.232L77.3296 122.12L79.3456 134.6H79.5376L82.8976 121.64L95.6656 81.8H101.33L114.962 121.16L118.226 133.64H118.418L120.626 120.968L128.306 88.232ZM196.869 81.8C196.741 84.68 196.517 87.656 196.197 90.728C195.877 93.8 195.461 96.68 194.949 99.368H191.013L186.597 88.04H168.645V111.56H180.357L184.581 104.168H187.653C187.973 107.304 188.133 110.792 188.133 114.632C188.133 118.472 187.973 122.056 187.653 125.384H184.581L180.357 117.8H168.645V142.76H187.365L192.453 130.568H196.389C196.645 131.784 196.901 133.16 197.157 134.696C197.413 136.232 197.605 137.832 197.733 139.496C197.925 141.096 198.053 142.728 198.117 144.392C198.245 146.056 198.309 147.592 198.309 149H146.373V145.352C147.461 144.776 148.677 144.232 150.021 143.72C151.365 143.208 152.773 142.824 154.245 142.568V88.232C152.965 87.976 151.589 87.624 150.117 87.176C148.709 86.664 147.461 86.088 146.373 85.448V81.8H196.869ZM204.311 149V145.352C205.527 144.648 206.807 144.04 208.151 143.528C209.559 143.016 210.903 142.696 212.183 142.568V88.232C210.903 87.976 209.559 87.624 208.151 87.176C206.743 86.664 205.463 86.088 204.311 85.448V81.8H219.767C222.199 81.8 224.503 81.704 226.679 81.512C228.855 81.32 231.351 81.224 234.167 81.224C237.239 81.224 240.215 81.448 243.095 81.896C245.975 82.344 248.535 83.144 250.775 84.296C253.015 85.448 254.807 87.08 256.151 89.192C257.495 91.24 258.167 93.896 258.167 97.16C258.167 99.208 257.783 101.128 257.015 102.92C256.311 104.648 255.287 106.184 253.943 107.528C252.663 108.872 251.127 109.992 249.335 110.888C247.607 111.784 245.719 112.424 243.671 112.808V113.192C245.719 113.448 247.767 113.928 249.815 114.632C251.927 115.336 253.815 116.36 255.479 117.704C257.143 119.048 258.487 120.744 259.511 122.792C260.599 124.776 261.143 127.144 261.143 129.896C261.143 133.352 260.375 136.328 258.839 138.824C257.303 141.32 255.223 143.368 252.599 144.968C250.039 146.568 247.095 147.752 243.767 148.52C240.439 149.224 236.983 149.576 233.399 149.576C232.055 149.576 230.583 149.544 228.983 149.48C227.383 149.416 225.783 149.352 224.183 149.288C222.583 149.224 221.015 149.16 219.479 149.096C218.007 149.032 216.759 149 215.735 149H204.311ZM233.303 143.336C237.335 143.336 240.503 142.152 242.807 139.784C245.111 137.352 246.263 134.152 246.263 130.184C246.263 127.752 245.879 125.768 245.111 124.232C244.343 122.632 243.287 121.384 241.943 120.488C240.599 119.528 238.999 118.888 237.143 118.568C235.287 118.184 233.271 117.992 231.095 117.992H226.007V142.664C226.903 142.856 227.831 143.016 228.791 143.144C229.815 143.272 231.319 143.336 233.303 143.336ZM229.079 111.752C230.167 111.752 231.255 111.72 232.343 111.656C233.431 111.528 234.455 111.4 235.415 111.272C237.911 110.248 239.927 108.68 241.463 106.568C242.999 104.392 243.767 101.928 243.767 99.176C243.767 95.144 242.711 92.2 240.599 90.344C238.487 88.424 235.767 87.464 232.439 87.464C231.031 87.464 229.815 87.496 228.791 87.56C227.767 87.624 226.839 87.72 226.007 87.848V111.752H229.079ZM57.3575 233V229.352C58.4455 228.712 59.6615 228.168 61.0055 227.72C62.3495 227.208 63.7575 226.824 65.2295 226.568V172.232C63.7575 171.912 62.3175 171.528 60.9095 171.08C59.5655 170.568 58.3815 170.024 57.3575 169.448V165.8H68.4935C69.5815 165.8 70.9255 165.768 72.5255 165.704C74.1255 165.64 75.7895 165.576 77.5175 165.512C79.2455 165.384 80.9095 165.288 82.5095 165.224C84.1735 165.096 85.5815 165.032 86.7335 165.032C92.3015 165.032 97.2615 165.768 101.614 167.24C106.03 168.712 109.742 170.856 112.75 173.672C115.822 176.488 118.158 179.976 119.758 184.136C121.422 188.296 122.254 193.096 122.254 198.536C122.254 203.848 121.486 208.68 119.95 213.032C118.414 217.384 116.11 221.096 113.038 224.168C109.966 227.24 106.062 229.64 101.326 231.368C96.6535 233.032 91.1495 233.864 84.8135 233.864C83.9815 233.864 82.8615 233.8 81.4535 233.672C80.0455 233.608 78.5415 233.512 76.9415 233.384C75.3415 233.32 73.7415 233.224 72.1415 233.096C70.5415 233.032 69.1335 233 67.9175 233H57.3575ZM85.4855 171.272C84.3335 171.272 83.1815 171.304 82.0295 171.368C80.8775 171.432 79.8855 171.528 79.0535 171.656V227.24C79.3095 227.304 79.7575 227.368 80.3975 227.432C81.0375 227.432 81.6775 227.464 82.3175 227.528C83.0215 227.528 83.6935 227.56 84.3335 227.624C84.9735 227.624 85.4535 227.624 85.7735 227.624C89.4855 227.624 92.6215 226.856 95.1815 225.32C97.8055 223.784 99.9495 221.704 101.614 219.08C103.278 216.456 104.494 213.384 105.262 209.864C106.03 206.344 106.414 202.6 106.414 198.632C106.414 195.112 105.998 191.72 105.166 188.456C104.398 185.192 103.182 182.28 101.518 179.72C99.8535 177.16 97.6775 175.112 94.9895 173.576C92.3655 172.04 89.1975 171.272 85.4855 171.272ZM178.541 165.8C178.413 168.68 178.189 171.656 177.869 174.728C177.549 177.8 177.133 180.68 176.621 183.368H172.685L168.269 172.04H150.317V195.56H162.029L166.253 188.168H169.325C169.645 191.304 169.805 194.792 169.805 198.632C169.805 202.472 169.645 206.056 169.325 209.384H166.253L162.029 201.8H150.317V226.76H169.037L174.125 214.568H178.061C178.317 215.784 178.573 217.16 178.829 218.696C179.085 220.232 179.277 221.832 179.405 223.496C179.597 225.096 179.725 226.728 179.789 228.392C179.917 230.056 179.981 231.592 179.981 233H128.045V229.352C129.133 228.776 130.349 228.232 131.693 227.72C133.037 227.208 134.445 226.824 135.917 226.568V172.232C134.637 171.976 133.261 171.624 131.789 171.176C130.381 170.664 129.133 170.088 128.045 169.448V165.8H178.541ZM238.207 172.232C236.671 171.912 235.199 171.496 233.791 170.984C232.447 170.472 231.231 169.96 230.143 169.448V165.8H254.527V169.448C253.759 169.96 252.735 170.472 251.455 170.984C250.239 171.496 248.959 171.912 247.615 172.232L225.535 233L216.031 234.152L191.263 172.232C189.983 171.912 188.703 171.528 187.423 171.08C186.143 170.568 185.023 170.024 184.062 169.448V165.8H216.031V169.448C214.943 169.96 213.727 170.472 212.383 170.984C211.039 171.496 209.631 171.912 208.159 172.232L221.599 210.056L223.807 219.08H223.999L226.111 209.864L238.207 172.232Z" fill="#333333"/>
</g>
<defs>
<filter id="filter0_d" x="0" y="0" width="318" height="318" filterUnits="userSpaceOnUse" color-interpolation-filters="sRGB">
<feFlood flood-opacity="0" result="BackgroundImageFix"/>
<feColorMatrix in="SourceAlpha" type="matrix" values="0 0 0 0 0 0 0 0 0 0 0 0 0 0 0 0 0 0 127 0"/>
<feOffset dx="4" dy="4"/>
<feGaussianBlur stdDeviation="2"/>
<feColorMatrix type="matrix" values="0 0 0 0 0 0 0 0 0 0 0 0 0 0 0 0 0 0 0.41 0"/>
<feBlend mode="normal" in2="BackgroundImageFix" result="effect1_dropShadow"/>
<feBlend mode="normal" in="SourceGraphic" in2="effect1_dropShadow" result="shape"/>
</filter>
</defs>
</svg>
