<svg xmlns:xlink="http://www.w3.org/1999/xlink" xmlns="http://www.w3.org/2000/svg" viewBox="0 0 508 285.75" height="1080" width="1920.002"><defs><linearGradient y2="138.25" x2="1058.333" y1="402.833" x1="555.625" gradientTransform="translate(-686.47 89.44)" gradientUnits="userSpaceOnUse" id="b" xlink:href="#a"/><linearGradient id="a"><stop offset="0" stop-color="#f2f2f2"/><stop offset="1" stop-color="#f2f2f2"/></linearGradient></defs><path style="isolation:auto;mix-blend-mode:normal;solid-color:#000;solid-opacity:1" color="#000" overflow="visible" fill="url(#b)" d="M-104.388 179.006h508v285.75h-508z" transform="translate(104.388 -179.137)"/><path d="M365.663 48.367l-.097 29.94-14.191-8.193h-.003a7.938 7.938 0 0 1 1.587 11.25l-79.375 105.834a7.938 7.938 0 0 1-13.45-1.213l-17.736-35.472-3.796-7.594-39.648 39.646-31.941 31.941a7.938 7.938 0 0 1-11.264.165l70.947 70.947H508V130.545z" opacity=".1" fill-rule="evenodd" stroke="#000" stroke-width=".265"/><path d="M155.75 214.672a7.938 7.938 0 0 1-.126-.136l-.006.005z" opacity=".1" fill-rule="evenodd" stroke="#000" stroke-width=".265"/><g color="#000" font-weight="400" font-family="sans-serif" fill="#59f"><path d="M346.903 68.578a7.938 7.938 0 0 0-6.643 3.263L268.59 167.4l-20.714-41.43a7.938 7.938 0 0 0-12.711-2.062l-79.375 79.375a7.938 7.938 0 1 0 11.224 11.224l71.588-71.587 21.533 43.066a7.938 7.938 0 0 0 13.45 1.213L352.96 81.365a7.938 7.938 0 0 0-6.057-12.787z" style="line-height:normal;font-variant-ligatures:normal;font-variant-position:normal;font-variant-caps:normal;font-variant-numeric:normal;font-variant-alternates:normal;font-feature-settings:normal;text-indent:0;text-align:start;text-decoration-line:none;text-decoration-style:solid;text-decoration-color:#000;text-transform:none;text-orientation:mixed;white-space:normal;shape-padding:0;isolation:auto;mix-blend-mode:normal;solid-color:#000;solid-opacity:1" overflow="visible" fill-rule="evenodd"/><path d="M362.35 47.104a5.639 5.639 0 0 0-.563.003 5.639 5.639 0 0 0-2.138.552l-16.419 7.926-16.418 7.927a5.639 5.639 0 0 0-.72 9.74l15.073 10.255 15.075 10.255a5.639 5.639 0 0 0 8.794-4.245l1.345-18.183 1.344-18.183a5.639 5.639 0 0 0-5.374-6.047z" style="line-height:normal;font-variant-ligatures:normal;font-variant-position:normal;font-variant-caps:normal;font-variant-numeric:normal;font-variant-alternates:normal;font-feature-settings:normal;text-indent:0;text-align:start;text-decoration-line:none;text-decoration-style:solid;text-decoration-color:#000;text-transform:none;text-orientation:mixed;white-space:normal;shape-padding:0;isolation:auto;mix-blend-mode:normal;solid-color:#000;solid-opacity:1" overflow="visible"/></g></svg>